<?xml version="1.0" standalone="no"?>
<!DOCTYPE svg PUBLIC "-//W3C//DTD SVG 20010904//EN"
 "http://www.w3.org/TR/2001/REC-SVG-20010904/DTD/svg10.dtd">
<svg version="1.0" xmlns="http://www.w3.org/2000/svg"
 width="700.000000pt" height="700.000000pt" viewBox="0 0 700.000000 700.000000"
 preserveAspectRatio="xMidYMid meet">
<metadata>
Created by potrace 1.14, written by Peter Selinger 2001-2017
</metadata>
<g transform="translate(0.000000,700.000000) scale(0.100000,-0.100000)"
fill="#000000" stroke="none">
<path d="M3215 6994 c-133 -13 -308 -40 -430 -65 -1002 -206 -1874 -854 -2365
-1758 -203 -372 -329 -763 -397 -1226 -25 -173 -25 -717 0 -890 70 -477 202
-877 416 -1258 502 -898 1371 -1533 2366 -1731 274 -54 348 -61 690 -61 341 0
395 4 666 56 1013 191 1891 826 2400 1736 215 382 343 772 416 1258 25 172 26
716 0 890 -108 736 -383 1341 -853 1875 -556 632 -1314 1036 -2169 1156 -114
16 -633 28 -740 18z m685 -199 c639 -81 1218 -330 1710 -734 604 -496 1014
-1193 1154 -1961 41 -226 51 -342 51 -600 0 -258 -10 -374 -51 -600 -215
-1181 -1055 -2152 -2199 -2543 -350 -119 -672 -171 -1065 -171 -390 0 -682 46
-1040 164 -1075 353 -1906 1246 -2178 2340 -70 280 -96 500 -96 810 0 310 26
530 96 810 210 843 760 1584 1510 2036 441 266 946 424 1493 468 105 8 495 -4
615 -19z"/>
<path d="M3255 6514 c-16 -2 -73 -9 -125 -15 -390 -44 -805 -184 -1157 -390
-222 -130 -412 -278 -604 -469 -469 -468 -756 -1035 -861 -1705 -19 -121 -22
-180 -22 -435 0 -326 13 -448 74 -700 287 -1185 1242 -2079 2435 -2279 293
-49 660 -53 940 -11 655 98 1237 391 1700 855 464 463 754 1039 857 1700 19
121 22 181 22 435 0 326 -13 447 -74 700 -272 1123 -1146 1990 -2265 2246
-225 52 -353 66 -630 69 -143 2 -273 1 -290 -1z m545 -379 c559 -65 1066 -295
1485 -674 408 -368 705 -891 814 -1431 175 -873 -97 -1776 -725 -2404 -363
-363 -832 -618 -1329 -721 -141 -29 -331 -52 -342 -41 -7 7 -41 547 -42 682
-1 61 -1 62 44 98 28 23 66 43 102 52 74 19 155 56 182 83 45 45 22 106 -56
145 -39 19 -43 48 -10 63 91 42 113 108 53 161 -19 17 -44 33 -55 37 -35 11
-25 41 24 69 136 80 54 187 -175 230 -54 10 -66 16 -68 33 -4 27 39 58 104 74
74 18 169 64 188 90 14 20 16 58 16 274 0 239 -1 252 -20 273 -41 43 -168 90
-292 107 l-48 6 0 75 c0 51 4 76 13 78 134 37 177 61 177 101 0 33 -52 71
-125 90 -33 8 -67 15 -77 15 -17 0 -18 13 -18 173 0 160 1 174 20 190 28 24
25 35 -15 54 -34 16 -35 19 -35 70 0 38 4 55 15 59 21 9 19 32 -5 39 -19 6
-20 15 -20 295 0 185 4 291 10 295 14 9 3 24 -26 35 l-24 10 0 275 c0 177 4
275 10 275 14 0 13 27 -2 32 -8 3 -13 86 -16 296 l-5 292 -27 0 -27 0 -5 -292
c-3 -210 -8 -293 -16 -296 -15 -5 -16 -32 -2 -32 6 0 10 -98 10 -275 l0 -275
-24 -10 c-29 -11 -40 -26 -26 -35 6 -4 10 -110 10 -295 0 -280 -1 -289 -20
-295 -24 -7 -26 -30 -5 -39 11 -4 15 -21 15 -59 0 -51 -1 -54 -35 -70 -40 -19
-43 -30 -15 -54 19 -16 20 -30 20 -189 l0 -172 -47 -7 c-54 -7 -128 -37 -155
-62 -10 -9 -18 -26 -18 -39 0 -39 44 -64 178 -100 8 -2 12 -27 12 -78 l0 -75
-47 -6 c-125 -17 -252 -64 -293 -107 -19 -21 -20 -34 -20 -271 0 -149 4 -256
10 -267 15 -28 85 -65 170 -91 91 -27 132 -53 128 -82 -2 -16 -15 -23 -68 -33
-233 -48 -311 -150 -175 -230 49 -28 59 -58 24 -69 -11 -4 -36 -20 -55 -37
-60 -53 -38 -119 53 -161 33 -15 29 -44 -9 -63 -79 -39 -102 -100 -57 -145 26
-26 108 -64 174 -80 28 -7 74 -30 103 -51 l52 -39 -1 -62 c-1 -135 -35 -676
-42 -683 -11 -11 -199 11 -342 41 -582 119 -1138 459 -1515 926 -304 377 -487
795 -567 1294 -25 156 -25 594 0 750 52 327 136 582 281 861 401 768 1165
1293 2036 1399 147 18 459 18 610 0z"/>
<path d="M1902 5111 c2 -5 86 -95 186 -200 l184 -191 -411 0 -411 0 0 -200 0
-200 406 -2 407 -3 -182 -187 c-99 -103 -181 -189 -181 -192 0 -3 114 -6 253
-6 l252 1 280 291 c154 160 281 294 283 298 2 4 -126 141 -284 304 l-286 296
-250 0 c-146 0 -248 -4 -246 -9z"/>
<path d="M4343 4822 c-138 -130 -250 -240 -250 -244 1 -3 114 -112 252 -242
l249 -236 208 0 c115 0 208 2 208 3 0 2 -74 74 -165 160 l-165 157 335 0 335
0 0 160 0 160 -332 0 -333 1 165 159 165 159 -210 1 -210 0 -252 -238z"/>
</g>
</svg>
