<svg xmlns="http://www.w3.org/2000/svg" xmlns:xlink="http://www.w3.org/1999/xlink" viewBox="0 0 446.18 117.2"><defs><style>.cls-1,.cls-2{fill:#213566;}.cls-2{stroke:#2c3280;stroke-miterlimit:10;stroke-width:0.4px;}.cls-3{fill:url(#Unbenannter_Verlauf_26);}</style><linearGradient id="Unbenannter_Verlauf_26" x1="3.5" y1="38.57" x2="113.26" y2="78.52" gradientUnits="userSpaceOnUse"><stop offset="0.11" stop-color="#cb2148"/><stop offset="0.25" stop-color="#862954"/><stop offset="0.37" stop-color="#50305e"/><stop offset="0.46" stop-color="#2e3364"/><stop offset="0.51" stop-color="#213566"/></linearGradient></defs><g id="Layer_2" data-name="Layer 2"><g id="Ebene_1" data-name="Ebene 1"><path class="cls-1" d="M380.28,44.5a14,14,0,0,0-13.85,15.79c.9,7,7.22,12.14,14.32,12.14h65.43v8.19a2.59,2.59,0,0,1-2.59,2.59H381c-13.33,0-24.79-10.24-25.42-23.55a24.74,24.74,0,0,1,24.72-25.94h63.18a2.72,2.72,0,0,1,2.72,2.72V44.5Z"/><path class="cls-1" d="M295.79,55.17h0L249.55,34a2.64,2.64,0,0,0-3.74,2.41V80.68a2.56,2.56,0,0,0,2.56,2.56h8.22V49.09L295.79,67h0L335,49.09V83.24h8.1a2.68,2.68,0,0,0,2.68-2.68V36.41A2.62,2.62,0,0,0,342,34Z"/><path class="cls-1" d="M143.82,36.35V44.5H234.1V36.32a2.59,2.59,0,0,0-2.6-2.6H146.45A2.63,2.63,0,0,0,143.82,36.35Z"/><path class="cls-1" d="M143.82,52.76V80.58a2.63,2.63,0,0,0,2.63,2.63H231.5a2.6,2.6,0,0,0,2.6-2.6V72.43H154.6V63.55h79.5V52.76Z"/><path class="cls-2" d="M229.16,101v15.89h-1.43v-7.56H214.55v7.56h-1.44V101h1.44v7.31h13.18V101Z"/><path class="cls-2" d="M240,115.94a8.9,8.9,0,0,1-3.67-2.89,7,7,0,0,1,0-8.21A8.9,8.9,0,0,1,240,102a12.52,12.52,0,0,1,5.24-1.06,12.83,12.83,0,0,1,5.24,1,9,9,0,0,1,3.67,2.89,7,7,0,0,1,0,8.25,9,9,0,0,1-3.67,2.89,12.83,12.83,0,0,1-5.24,1A12.52,12.52,0,0,1,240,115.94Zm9.72-.91a7.84,7.84,0,0,0,3.15-2.51,6.13,6.13,0,0,0,0-7.15,7.76,7.76,0,0,0-3.15-2.51,11.63,11.63,0,0,0-9,0,7.75,7.75,0,0,0-3.17,2.51,6.13,6.13,0,0,0,0,7.15,7.84,7.84,0,0,0,3.17,2.51,11.63,11.63,0,0,0,9,0Z"/><path class="cls-2" d="M280,116.89l0-13.6-8.25,11.49H271l-8.25-11.44v13.55h-1.4V101h1.21l8.81,12.28L280.15,101h1.18l0,15.89Z"/><path class="cls-2" d="M302.68,115.84v1h-13.6V101h13.17v1H290.51v6.26H301v1H290.51v6.51Z"/><path class="cls-2" d="M320,115.94a9,9,0,0,1-3.67-2.89,7,7,0,0,1,0-8.21A9,9,0,0,1,320,102a12.52,12.52,0,0,1,5.24-1.06,12.83,12.83,0,0,1,5.24,1,8.9,8.9,0,0,1,3.67,2.89,7,7,0,0,1,0,8.25,8.9,8.9,0,0,1-3.67,2.89,12.83,12.83,0,0,1-5.24,1A12.52,12.52,0,0,1,320,115.94Zm9.72-.91a7.84,7.84,0,0,0,3.15-2.51,6.09,6.09,0,0,0,0-7.15,7.76,7.76,0,0,0-3.15-2.51,11.63,11.63,0,0,0-9,0,7.75,7.75,0,0,0-3.17,2.51,6.13,6.13,0,0,0,0,7.15,7.84,7.84,0,0,0,3.17,2.51,11.63,11.63,0,0,0,9,0Z"/><path class="cls-2" d="M342.71,102.05v6.78h10.51v1H342.71v7h-1.43V101h13.18v1Z"/><path class="cls-2" d="M368,101h7.8a13.72,13.72,0,0,1,5.45,1,8.85,8.85,0,0,1,3.7,2.83,7,7,0,0,1,0,8.19,8.75,8.75,0,0,1-3.7,2.82,13.72,13.72,0,0,1-5.45,1H368Zm7.69,14.84a12.4,12.4,0,0,0,4.81-.87,7.32,7.32,0,0,0,3.21-2.44,6.25,6.25,0,0,0,0-7.17,7.32,7.32,0,0,0-3.21-2.44,12.4,12.4,0,0,0-4.81-.87h-6.25v13.79Z"/><path class="cls-2" d="M404.26,112.42H392.83l-2.51,4.47h-1.54L397.84,101h1.44l9.06,15.89H406.8Zm-.53-1-5.18-9.17-5.16,9.17Z"/><path class="cls-2" d="M416.54,102.05h-7.1v-1h15.63v1H418v14.84h-1.43Z"/><path class="cls-2" d="M441.65,112.42H430.22l-2.5,4.47h-1.55L435.23,101h1.44l9.07,15.89h-1.55Zm-.53-1-5.18-9.17-5.16,9.17Z"/><path class="cls-3" d="M58.27,0a58.51,58.51,0,0,0-53,33.74H90.64a2.86,2.86,0,0,1,2.54,4.17L89.72,44.6H1.44A59.1,59.1,0,0,0,0,52.86H85.46L79.88,63.6H0a57.72,57.72,0,0,0,1.46,8.88H75.3l-4.11,7.93a5.28,5.28,0,0,1-4.69,2.85H5.26A58.5,58.5,0,1,0,58.27,0Z"/></g></g></svg>