<svg id="Layer_1" data-name="Layer 1" xmlns="http://www.w3.org/2000/svg" viewBox="0 0 84.26 76.56"><defs><style>.cls-1{fill:#3f245b;}.cls-2{fill:#00e6b9;}.cls-3{fill:#fff;}</style></defs><rect class="cls-1" width="84.26" height="76.56" rx="2.76"/><path class="cls-2" d="M45.91,58.69a1.06,1.06,0,1,1-1.07-1A1.05,1.05,0,0,1,45.91,58.69Z"/><path class="cls-3" d="M12.24,50.72h.51v8.93h-.51a1,1,0,0,1-1-1V51.71A1,1,0,0,1,12.24,50.72Zm7.1-.22a2.93,2.93,0,0,0-2.55,1.28V50.72h-.51a1,1,0,0,0-1,1v6.94a1,1,0,0,0,1,1h.51V55.14c0-2.3.66-3.28,2.19-3.28a1.76,1.76,0,0,1,1.58.75,3.06,3.06,0,0,1,.29,1.72v4.3a1,1,0,0,0,1,1h.49V54.07a4.22,4.22,0,0,0-.49-2.35A3,3,0,0,0,19.34,50.5Zm17.9,4.68v.26H30.35a2.83,2.83,0,0,0,2.81,3,2.57,2.57,0,0,0,2.22-1.13A1,1,0,0,1,36.67,57l.49.27a4.36,4.36,0,0,1-4.06,2.51,4.29,4.29,0,0,1-4.34-4.61c0-2.76,1.74-4.66,4.27-4.66S37.24,52.37,37.24,55.18Zm-1.59-1a2.62,2.62,0,0,0-5.19,0Zm-9.14-6.63H26a1,1,0,0,0-1,1v2.19h-.91v1.4H25v6.53a1,1,0,0,0,1,1h.51V52.12h1.57v-1.4H26.51Zm22.23,1V58.65a1,1,0,0,0,1,1h.51V47.53h-.51A1,1,0,0,0,48.74,48.53Zm-8,3.14v-1h-.51a1,1,0,0,0-1,1v6.94a1,1,0,0,0,1,1h.51V54.88a4.54,4.54,0,0,1,.34-2.12A1.62,1.62,0,0,1,42.49,52a1.44,1.44,0,0,1,.89.3l.7-1.36a2.39,2.39,0,0,0-1.34-.39C41.91,50.5,41.53,50.74,40.74,51.67ZM60.88,50.5a2.93,2.93,0,0,0-2.55,1.28V50.72h-.51a1,1,0,0,0-1,1v6.94a1,1,0,0,0,1,1h.51V55.14c0-2.3.66-3.28,2.19-3.28a1.77,1.77,0,0,1,1.58.75,3.06,3.06,0,0,1,.29,1.72v4.32a1,1,0,0,0,1,1h.51V54.07a4.22,4.22,0,0,0-.49-2.35A3,3,0,0,0,60.88,50.5Zm8.51,4,3.76-3.76H71.69a1.34,1.34,0,0,0-1,.39L67.94,54V47.53h-.51a1,1,0,0,0-1,1V58.65a1,1,0,0,0,1,1h.51V55.9l.39-.38,3.14,3.56a1.37,1.37,0,0,0,1,.46h1.39Zm-16.6-2.77v6.94a1,1,0,0,0,1,1h.51V50.72h-.51A1,1,0,0,0,52.79,51.71Zm5.68-24.24a11.72,11.72,0,0,1-6.86,10.64,11.82,11.82,0,0,1-15,.83,12,12,0,0,1-8.24-11.35,11.66,11.66,0,0,1,.13-1.68v-.08A11.65,11.65,0,0,1,40.09,14.2c.18,0,.35,0,.53,0a11.55,11.55,0,0,1,5-1.11,11.8,11.8,0,0,1,11.29,8.45A11.56,11.56,0,0,1,58.47,27.47ZM56.05,21.2a11.21,11.21,0,0,0-9.29-4.94h-.07a11.64,11.64,0,0,1,2.88,2.85,11.89,11.89,0,0,1,5.9,10.26c0,.22,0,.44,0,.66a11,11,0,0,0,.61-8.83Zm-21,6.27A11.67,11.67,0,0,1,37.71,20,11.13,11.13,0,0,0,34.61,23a10.79,10.79,0,0,0,.51,5.76C35.08,28.32,35.05,27.9,35.05,27.47ZM42.92,17a11,11,0,0,0-1.67.76,12.06,12.06,0,0,1,2.34-.23,9.46,9.46,0,0,1,1.07.06A10.18,10.18,0,0,0,42.92,17Zm4.66,1.23q.64.24,1.26.54a11.45,11.45,0,0,0-2.76-2.43,12.86,12.86,0,0,0-1.52.18A12.28,12.28,0,0,1,47.58,18.18ZM42,16.76a11.42,11.42,0,0,0-1.77-.15,11.08,11.08,0,0,0-2.39.27A11.07,11.07,0,0,0,35.15,21a11.86,11.86,0,0,1,4.55-2.86A11.13,11.13,0,0,1,42,16.76ZM35.55,27.47A11,11,0,0,0,36,30.58,11.13,11.13,0,0,0,44.94,36a11.28,11.28,0,0,0,6.3-8.53,10.94,10.94,0,0,0-4.39-8.66,11,11,0,0,0-3.26-.49,11.12,11.12,0,0,0-4.47,1A11.19,11.19,0,0,0,35.55,27.47Zm15-6A12,12,0,0,0,50,20.37l-.44-.29A11.74,11.74,0,0,1,50.51,21.51ZM37,33a11.25,11.25,0,0,0,4,4.06,11.22,11.22,0,0,0,2.66-.54A11.82,11.82,0,0,1,37,33Zm4.5,4.36a10.23,10.23,0,0,0,1.8.76,10.68,10.68,0,0,0,3.14-1.49c-.3,0-.6,0-.9,0a11.31,11.31,0,0,1-1.17-.06A11.12,11.12,0,0,1,41.53,37.37Zm5.94-1.5A11,11,0,0,0,51,29.75,11.62,11.62,0,0,1,45.68,36,10.54,10.54,0,0,0,47.47,35.87Zm1.81-.48a11.12,11.12,0,0,0,5.09-3.7,11.14,11.14,0,0,0,.25-2.32,11,11,0,0,0-4-8.53,11.59,11.59,0,0,1,.93,2.81,11.7,11.7,0,0,1,.69,3.94A11.89,11.89,0,0,1,49.28,35.39ZM42,14.37a11.69,11.69,0,0,1,4,1.43c.27,0,.54,0,.81,0a11.66,11.66,0,0,1,8.47,3.64,11.06,11.06,0,0,0-13.23-5Zm-2.7,1.34c.32,0,.64-.05,1-.05a11.9,11.9,0,0,1,3.45.51,12.36,12.36,0,0,1,1.63-.32,11.08,11.08,0,0,0-4-1.23A10.61,10.61,0,0,0,39.3,15.71ZM29,23.6a12,12,0,0,1,9-7.72,11.56,11.56,0,0,1,1.93-1.32A11.29,11.29,0,0,0,29,23.6Zm.44,6a11.33,11.33,0,0,0,3.43,4.9,11.74,11.74,0,0,1,1.19-12.27,11.82,11.82,0,0,1,2.55-5,11,11,0,0,0-7.36,10.35A11.35,11.35,0,0,0,29.47,29.62Zm4.9,7.23a11.74,11.74,0,0,1-1.1-1.61,11.71,11.71,0,0,1-3.16-3.45A11.08,11.08,0,0,0,34.37,36.85Zm.15-1.22a11.17,11.17,0,0,0,5.57,1.49h0a11.72,11.72,0,0,1-4.38-5.7,11.63,11.63,0,0,1-2-6.51c0-.22,0-.43,0-.64a10.94,10.94,0,0,0,.71,11.36ZM36.7,38a11.08,11.08,0,0,0,3.56.6,10.86,10.86,0,0,0,2.22-.23,11.89,11.89,0,0,1-1.82-.91l-.57,0A11.58,11.58,0,0,1,35,36.28,11.88,11.88,0,0,0,36.7,38ZM49,39a11.45,11.45,0,0,1-2.28.23,11.89,11.89,0,0,1-2.62-.31,11.88,11.88,0,0,1-3.88.66,10,10,0,0,1-1.09-.06A11,11,0,0,0,49,39Zm4.88-5.74a11.83,11.83,0,0,1-5.57,3.13A12,12,0,0,1,45,38.53a10.62,10.62,0,0,0,5.3-.45A11,11,0,0,0,53.92,33.21Zm4-5.74a11,11,0,0,0-.7-3.86,11.2,11.2,0,0,1,.08,1.3,11.74,11.74,0,0,1-2.09,6.68,11.89,11.89,0,0,1-2.5,5.33A11.21,11.21,0,0,0,58,27.47Z"/><path class="cls-2" d="M32.82,26.5a.93.93,0,1,1,.93-.93A.93.93,0,0,1,32.82,26.5Zm1.08,8a.83.83,0,1,0,.83.83A.83.83,0,0,0,33.9,34.48Zm13,0a.55.55,0,1,0,.55.55A.54.54,0,0,0,46.85,34.46Zm9.66-7a.91.91,0,0,0,0,1.81.91.91,0,1,0,0-1.81Zm1.61-1.85a.67.67,0,1,0,.67.67A.67.67,0,0,0,58.12,25.62ZM33.54,17.36a.88.88,0,1,0-.87-.88A.87.87,0,0,0,33.54,17.36ZM28.88,28.14a.74.74,0,1,0,.73.74A.74.74,0,0,0,28.88,28.14Zm21.2,9.67a.94.94,0,1,0,1,.94A.94.94,0,0,0,50.08,37.81ZM44.83,12.9a.55.55,0,0,0-.54.55.54.54,0,0,0,.54.54.55.55,0,0,0,.55-.54A.55.55,0,0,0,44.83,12.9Z"/></svg>