<?xml version="1.0" encoding="utf-8"?>
<!-- Generator: Adobe Illustrator 23.1.0, SVG Export Plug-In . SVG Version: 6.00 Build 0)  -->
<svg version="1.1" id="Logo_PlusServer" xmlns="http://www.w3.org/2000/svg" xmlns:xlink="http://www.w3.org/1999/xlink" x="0px"
	 y="0px" viewBox="0 0 567.9 99.2" style="enable-background:new 0 0 567.9 99.2;" xml:space="preserve">
<style type="text/css">
	.st0{fill:#37414B;}
</style>
<g>
	<path class="st0" d="M562,38.1c-2.3-3.3-5.3-5.9-9.1-7.1c-2.6-0.8-5-0.9-7.3-0.9c-5.7,0-10.5,1.9-13.9,3.9c-1.8,1.1-3.1,2.2-4,2.9
		V30l-8.8,3v45.9h8.8V47c8-7.1,13.9-8.6,18.3-8.6c3.5,0,6,1.6,7.9,3.8c1.7,2,3.2,4.5,4,6.9h9.5C566,45.1,564.2,41.3,562,38.1z"/>
	<path class="st0" d="M349.1,43.8c-0.4-1.5-0.8-2.9-1.5-4.1c-0.6-1.2-1.4-2.3-2.3-3.3c-1.1-1.3-2.4-2.3-3.8-3.1
		c-1.4-0.9-3.2-1.5-5.2-1.9s-4.4-0.8-7.3-1c-2.9-0.2-6.3-0.3-10.4-0.3c-2.8,0-5.3,0-7.5,0.1c-2.1,0.1-4,0.3-5.7,0.5
		s-3.1,0.5-4.4,0.9c-1.3,0.4-2.4,0.8-3.4,1.4c-3.2,1.7-5.5,4.4-7,7.9s-2.2,8.1-2.2,13.8c0,4.8,0.6,8.8,1.7,12.2
		c1.1,3.3,2.9,5.9,5.3,7.7c1.1,0.9,2.4,1.6,3.9,2.1c1.5,0.6,3.4,1,5.6,1.4c2.2,0.4,4.8,0.6,7.8,0.8c3,0.1,6.5,0.2,10.6,0.2
		c4.8,0,8.8-0.3,12.1-0.8c3.3-0.5,6.1-1.4,8.2-2.6c2.1-1.2,3.7-2.9,4.7-4.9c0.8-1.7,1.3-3.7,1.5-6h-9.1c-0.1,0.7-0.2,1.3-0.3,1.6
		c-0.2,0.5-0.5,1-1,1.5c-0.5,0.6-1.2,1.1-2,1.5c-0.8,0.4-1.8,0.8-3.1,1c-1.3,0.3-2.9,0.4-4.8,0.5c-1.9,0.1-4.2,0.1-6.8,0.1
		c-3.5,0-6.5-0.1-8.9-0.2c-2.4-0.1-4.5-0.3-6.1-0.6c-1.6-0.3-3-0.7-4-1.1c-1-0.4-1.8-1-2.4-1.6c-1-1-1.8-2.4-2.3-4.2
		c-0.4-1.7-0.7-3.8-0.9-6.4h52.2v-0.7c-0.1-2.7-0.2-5.1-0.4-7.1S349.5,45.4,349.1,43.8z M298.3,49.1c0.2-2.1,0.6-3.9,1.1-5.3
		c0.6-1.5,1.6-2.6,3.1-3.5c1.5-0.9,3.5-1.5,6-1.8c2.5-0.4,5.8-0.5,9.9-0.5c4.5,0,8.2,0.2,11.2,0.5c2.9,0.4,5.2,1,6.8,1.9
		c1.6,0.9,2.7,2.1,3.3,3.5c0.6,1.3,0.9,3.1,0.9,5.2H298.3z"/>
	<polygon class="st0" points="419.1,86.3 408.8,57 399.5,57 414.6,100.1 423.6,100.1 448.1,30.7 438.7,30.7 	"/>
	<path class="st0" d="M400.8,38.1c-2.3-3.3-5.3-5.9-9.1-7.1c-2.6-0.8-5-0.9-7.3-0.9c-5.7,0-10.5,1.9-13.9,3.9
		c-1.8,1.1-3.1,2.2-4,2.9V30l-8.8,3v45.9h8.8V47c8-7.1,13.9-8.6,18.3-8.6c3.4,0,5.9,1.6,7.9,3.8c1.7,2,3.2,4.5,4,6.9h9.5
		C404.8,45.1,403,41.3,400.8,38.1z"/>
	<path class="st0" d="M510.4,43.8c-0.4-1.5-0.8-2.9-1.5-4.1c-0.6-1.2-1.4-2.3-2.3-3.3c-1.1-1.3-2.4-2.3-3.8-3.1
		c-1.4-0.9-3.2-1.5-5.2-1.9s-4.4-0.8-7.3-1c-2.9-0.2-6.3-0.3-10.4-0.3c-2.8,0-5.3,0-7.5,0.1c-2.1,0.1-4,0.3-5.7,0.5
		s-3.1,0.5-4.4,0.9c-1.3,0.4-2.4,0.8-3.4,1.4c-3.2,1.7-5.5,4.4-7,7.9s-2.2,8.1-2.2,13.8c0,4.8,0.6,8.8,1.7,12.2
		c1.1,3.3,2.9,5.9,5.3,7.7c1.1,0.9,2.4,1.6,3.9,2.1c1.5,0.6,3.4,1,5.6,1.4c2.2,0.4,4.8,0.6,7.8,0.8c3,0.1,6.5,0.2,10.6,0.2
		c4.8,0,8.8-0.3,12.1-0.8c3.3-0.5,6.1-1.4,8.2-2.6c2.1-1.2,3.7-2.9,4.7-4.9c0.8-1.7,1.3-3.7,1.5-6H502c-0.1,0.7-0.2,1.3-0.3,1.6
		c-0.2,0.5-0.5,1-1,1.5c-0.5,0.6-1.2,1.1-2,1.5c-0.8,0.4-1.8,0.8-3.1,1c-1.3,0.3-2.9,0.4-4.8,0.5c-1.9,0.1-4.2,0.1-6.8,0.1
		c-3.5,0-6.5-0.1-8.9-0.2c-2.4-0.1-4.5-0.3-6.1-0.6c-1.6-0.3-3-0.7-4-1.1c-1-0.4-1.8-1-2.4-1.6c-1-1-1.8-2.4-2.3-4.2
		c-0.4-1.7-0.7-3.8-0.9-6.4h52.2v-0.7c-0.1-2.7-0.2-5.1-0.4-7.1S510.8,45.4,510.4,43.8z M459.6,49.1c0.2-2.1,0.5-3.9,1.1-5.3
		c0.6-1.5,1.6-2.6,3.1-3.5c1.5-0.9,3.5-1.5,6-1.8c2.5-0.4,5.8-0.5,9.9-0.5c4.5,0,8.2,0.2,11.2,0.5c2.9,0.4,5.2,1,6.8,1.9
		c1.6,0.9,2.7,2.1,3.3,3.5c0.6,1.3,0.9,3.1,0.9,5.2H459.6z"/>
	<path class="st0" d="M266.4,50.5c-1.2-0.1-2.9-0.1-5-0.2c-2.1,0-4.2-0.1-6.4-0.1c-2.2-0.1-4.3-0.1-6.1-0.1c-1.9,0-3.2,0-4.1,0
		c-0.8,0-1.6,0-2.3,0c-1.8,0-3.3-0.1-4.6-0.2c-1.7-0.2-3.1-0.5-4-0.8c-0.9-0.4-1.5-0.9-1.8-1.5c-0.3-0.7-0.5-1.6-0.5-2.8
		c0-1.1,0.2-2.1,0.5-2.8s0.7-1.3,1.3-1.7c0.8-0.6,2.8-1.2,5.8-1.6c3.1-0.4,7.2-0.6,12.4-0.6c5.6,0,9.8,0.2,12.7,0.6s4.7,1.2,5.5,2
		c0.5,0.4,0.8,1,0.9,1.6c0,0.1,0.1,0.4,0.1,0.7c0.7,0,8.6,0,9.5,0c0-0.3,0-0.5,0-0.7c-0.1-0.9-0.2-1.7-0.3-2.4s-0.4-1.4-0.7-2
		c-0.3-0.5-0.7-1.1-1.1-1.6c-0.9-1.1-2.1-2.1-3.4-2.9c-1.4-0.8-3.1-1.4-5.1-1.9c-2-0.4-4.5-0.8-7.4-1c-2.9-0.2-6.3-0.3-10.2-0.3
		c-6.9,0-12.2,0.2-16,0.7c-3.8,0.5-6.6,1.2-8.5,2.4c-3.5,2.3-5.3,6.2-5.3,11.3c0,2.4,0.3,4.4,0.9,6.1c0.6,1.7,1.7,3.2,3.1,4.2
		c1.4,1.1,3.3,1.9,5.5,2.3c2.2,0.5,4.9,0.7,8,0.8c4.5,0.1,8,0.1,10.6,0.1c2.6,0,4.7,0.1,6.1,0.1s2.4,0,3,0c0.6,0,1.2,0,1.7,0
		c0.3,0,0.5,0,0.8,0c4.2,0,7.1,0.5,8.6,1.4c0.8,0.5,1.3,1.1,1.7,1.9c0.4,0.8,0.6,1.9,0.6,3.2c0,2.1-0.6,3.5-1.8,4.4
		c-0.5,0.4-1,0.7-1.8,1c-0.7,0.2-1.8,0.5-3.2,0.6c-1.4,0.2-3.1,0.3-5.3,0.3c-2.1,0.1-4.8,0.1-8,0.1c-5.3,0-9.5-0.1-12.5-0.2
		c-3-0.1-5.2-0.5-6.5-1c-1.4-0.6-2.1-1.3-2.4-2.2c-0.2-0.7-0.4-1.7-0.5-2.9c-2.1,0-8.4,0-9.5,0c0.1,2.6,0.4,4.6,1,6.2
		c0.7,1.8,1.9,3.3,3.6,4.5c1,0.7,2.1,1.3,3.5,1.7c1.4,0.5,3.1,0.8,5.1,1.1c2.1,0.3,4.5,0.5,7.4,0.6c2.9,0.1,6.3,0.2,10.3,0.2
		c6.7,0,11.9-0.2,15.6-0.6s6.4-1,8.3-2c2.1-1.1,3.6-2.7,4.6-4.6c0.9-1.9,1.4-4.3,1.4-7.3c0-4.6-1.2-8.2-3.7-10.5
		C276,51.8,271.9,50.7,266.4,50.5z"/>
	<path class="st0" d="M199.5,50.5c-1.2-0.1-2.9-0.1-5-0.2c-2.1,0-4.2-0.1-6.4-0.1c-2.2-0.1-4.3-0.1-6.1-0.1c-1.9,0-3.2,0-4.1,0
		c-0.8,0-1.6,0-2.3,0c-1.8,0-3.3-0.1-4.6-0.2c-1.7-0.2-3.1-0.5-4-0.8c-0.9-0.4-1.5-0.9-1.8-1.5c-0.3-0.7-0.5-1.6-0.5-2.8
		c0-1.1,0.2-2.1,0.5-2.8c0.3-0.7,0.7-1.3,1.3-1.7c0.8-0.6,2.8-1.2,5.8-1.6c3.1-0.4,7.2-0.6,12.4-0.6c5.6,0,9.8,0.2,12.7,0.6
		c2.9,0.4,4.7,1.2,5.5,2c0.5,0.4,0.8,1,0.9,1.6c0,0.1,0.1,0.4,0.1,0.7c0.7,0,8.6,0,9.5,0c0-0.3,0-0.5,0-0.7
		c-0.1-0.9-0.2-1.7-0.3-2.4c-0.1-0.7-0.4-1.4-0.7-2c-0.3-0.5-0.7-1.1-1.1-1.6c-0.9-1.1-2.1-2.1-3.4-2.9c-1.4-0.8-3.1-1.4-5.1-1.9
		c-2-0.4-4.5-0.8-7.4-1c-2.9-0.2-6.3-0.3-10.2-0.3c-6.9,0-12.2,0.2-16,0.7c-3.8,0.5-6.6,1.2-8.5,2.4c-3.5,2.3-5.3,6.2-5.3,11.3
		c0,2.4,0.3,4.4,0.9,6.1s1.7,3.2,3.1,4.2c1.4,1.1,3.3,1.9,5.5,2.3c2.2,0.5,4.9,0.7,8,0.8c4.5,0.1,8,0.1,10.6,0.1
		c2.6,0,4.7,0.1,6.1,0.1c1.4,0,2.4,0,3,0c0.6,0,1.2,0,1.7,0c0.3,0,0.5,0,0.8,0c4.2,0,7.1,0.5,8.6,1.4c0.8,0.5,1.3,1.1,1.7,1.9
		c0.4,0.8,0.6,1.9,0.6,3.2c0,2.1-0.6,3.5-1.8,4.4c-0.5,0.4-1,0.7-1.8,1c-0.7,0.2-1.8,0.5-3.2,0.6c-1.4,0.2-3.1,0.3-5.3,0.3
		c-2.1,0.1-4.8,0.1-8,0.1c-5.3,0-9.5-0.1-12.5-0.2c-3-0.1-5.2-0.5-6.5-1c-1.4-0.6-2.1-1.3-2.4-2.2c-0.2-0.7-0.4-1.7-0.5-2.9
		c-2.1,0-8.4,0-9.5,0c0.1,2.6,0.4,4.6,1,6.2c0.7,1.8,1.9,3.3,3.6,4.5c1,0.7,2.1,1.3,3.5,1.7c1.4,0.5,3.1,0.8,5.1,1.1
		c2.1,0.3,4.5,0.5,7.4,0.6c2.9,0.1,6.3,0.2,10.3,0.2c6.7,0,11.9-0.2,15.6-0.6s6.4-1,8.3-2c2.1-1.1,3.6-2.7,4.6-4.6
		c0.9-1.9,1.4-4.3,1.4-7.3c0.1-4.6-1.1-8.2-3.7-10.5C209.1,51.8,205,50.7,199.5,50.5z"/>
	<path class="st0" d="M138.1,54.3c0,3.3-0.2,5.8-0.5,7.6c-0.4,1.7-1,3-1.9,4.1c-1.4,1.8-3.6,3.2-6.6,4s-7.4,1.2-12.9,1.2
		c-4.4,0-7.7-0.2-10-0.7c-2.3-0.4-4-1.2-5.2-2.2c-0.6-0.6-1.1-1.2-1.5-1.8c-0.4-0.7-0.7-1.5-1-2.5s-0.4-2.2-0.5-3.7
		c-0.1-1.5-0.1-3.3-0.1-5.5V30.7h-0.7h-8.1V57c0,2.4,0.1,4.5,0.3,6.4c0.2,1.8,0.4,3.4,0.8,4.8c0.4,1.4,0.9,2.6,1.5,3.6
		c0.6,1,1.4,1.9,2.2,2.6c1.9,1.7,4.6,2.9,7.9,3.6c3.3,0.7,7.9,1,13.7,1c3.7,0,6.8-0.1,9.3-0.4c2.6-0.2,4.8-0.6,6.6-1.2
		c1.8-0.6,3.4-1.4,4.6-2.4c0.8-0.7,1.6-1.6,2.3-2.5v6h8.9V30.7h-9.1V54.3z"/>
	<polygon class="st0" points="71,79.1 79.8,79.1 79.8,0.9 71,3.9 	"/>
	<path class="st0" d="M53.6,33.7c-1.1-0.7-2.3-1.3-3.6-1.8s-2.9-0.9-4.7-1.1c-1.8-0.3-3.9-0.5-6.3-0.6s-5.2-0.1-8.5-0.1
		c-3.7,0-6.8,0.1-9.3,0.3s-4.6,0.5-6.4,1s-3.2,1.2-4.4,2.2c-0.7,0.6-1.4,1.3-2,2.1v-5.6l-8.9,3V100l8.9-3V73.8
		c0.7,0.8,1.4,1.5,2.2,2.1c1.2,0.9,2.6,1.5,4.3,2c1.7,0.4,3.7,0.8,6.1,1s5.3,0.3,8.7,0.3c3.2,0,6.1-0.1,8.5-0.2
		c2.4-0.1,4.5-0.3,6.4-0.5c1.9-0.2,3.4-0.6,4.8-1c1.3-0.4,2.5-0.9,3.5-1.5c3.2-1.8,5.5-4.5,6.9-7.9c1.4-3.4,2.1-7.9,2.1-13.4
		c-0.1-5.6-0.7-10-1.9-13.3C58.7,38.1,56.6,35.6,53.6,33.7z M51.4,64c-0.7,2.1-1.8,3.6-3.3,4.7c-0.7,0.5-1.5,0.9-2.5,1.3
		c-0.9,0.3-2.1,0.6-3.6,0.8c-1.5,0.2-3.2,0.3-5.3,0.4s-4.5,0.1-7.4,0.1c-4.6,0-8.4-0.2-11.2-0.6c-2.8-0.4-4.9-1.3-6.3-2.4
		c-1.5-1.2-2.4-2.8-2.9-5c-0.5-2.2-0.8-5.2-0.8-9c0-3.8,0.4-6.8,1-8.8c0.8-2.2,1.9-3.8,3.4-4.9c0.6-0.4,1.4-0.8,2.4-1.2
		c1-0.3,2.2-0.6,3.7-0.8c1.5-0.2,3.4-0.3,5.6-0.4s4.8-0.1,7.9-0.1c4.4,0,8,0.2,10.7,0.6c2.6,0.4,4.6,1.2,6,2.4
		c1.4,1.2,2.3,2.8,2.8,5c0.5,2.2,0.8,5.2,0.8,8.8C52.4,58.9,52,61.9,51.4,64z"/>
</g>
</svg>
