<?xml version="1.0" encoding="utf-8"?>
<!-- Generator: Adobe Illustrator 23.1.0, SVG Export Plug-In . SVG Version: 6.00 Build 0)  -->
<svg version="1.1" id="Ebene_1" xmlns="http://www.w3.org/2000/svg" xmlns:xlink="http://www.w3.org/1999/xlink" x="0px" y="0px"
	 viewBox="0 0 408.2 64.1" style="enable-background:new 0 0 408.2 64.1;" xml:space="preserve">
<style type="text/css">
	.st0{fill:#007DB0;}
	.st1{fill:#A2C617;}
	.st2{fill:#3C3C3B;}
</style>
<g>
	<path class="st0" d="M43,0H38v64.1h10.1v-8.9c0,0,0,0,0,0V44.9c0,0,0,0,0,0V10.4c15.3,1.4,27.8,8.9,27.8,17.3
		c0,6.5-7.4,12.3-17.7,15.4v10.5C74.6,49.7,86,39.7,86,27.7C86,12.1,67.1,0,43,0"/>
	<path class="st1" d="M27.8,43.1c-10.3-3-17.7-8.9-17.7-15.4c0-6.5,7.4-12.4,17.7-15.4V1.7C11.4,5.6,0,15.6,0,27.7
		c0,12.1,11.4,22,27.8,25.9V43.1z"/>
	<path class="st2" d="M138.3,19.9h-8.8v11.3h8.8c4.5,0,6.7-2.3,6.7-5.9C145,22,142.7,19.9,138.3,19.9 M140,38.9h-10.5v11.6h-10.3
		V12.3H140c10.1,0,15.4,5,15.4,12.9C155.4,32.8,150.4,38.9,140,38.9"/>
	<polygon class="st2" points="187.4,50.5 187.4,33.8 171.2,33.8 171.2,50.5 160.9,50.5 160.9,12.3 171.2,12.3 171.2,25.8 
		187.4,25.8 187.4,12.3 197.7,12.3 197.7,50.5 	"/>
	<rect x="205.9" y="12.3" class="st2" width="10.3" height="38.2"/>
	<polygon class="st2" points="224.3,50.5 224.3,12.3 234.5,12.3 234.5,42.4 254.6,42.4 254.6,50.5 	"/>
	<path class="st2" d="M295.8,36.7c0,10.1-7.9,14.8-18.5,14.8c-10.3,0-18.5-4.6-18.5-14.7V12.3H269v24.3c0,4.6,3.1,7.2,8.2,7.2
		c5.4,0,8.3-2.5,8.3-7.3V12.3h10.3V36.7z"/>
	<polygon class="st2" points="344.4,50.5 344.4,12.3 370.5,12.3 370.5,15.7 348.4,15.7 348.4,29.8 368.5,29.8 368.5,33 348.4,33 
		348.4,47.1 370.5,47.1 370.5,50.5 	"/>
	<polygon class="st2" points="375.9,12.3 375.9,15.7 390,15.7 390,50.5 394,50.5 394,15.7 408.2,15.7 408.2,12.3 	"/>
	<polygon class="st2" points="334.6,50.5 334.6,12.3 330.7,12.3 330.7,41.7 305.5,12.3 304,12.3 304,50.5 308,50.5 308,21.1 
		333.3,50.5 	"/>
</g>
</svg>
